<?xml version="1.0" encoding="UTF-8"?>
<svg width="140px" height="140px" viewBox="0 0 140 140" version="1.1" xmlns="http://www.w3.org/2000/svg" xmlns:xlink="http://www.w3.org/1999/xlink">
    <title> BON PLANS</title>
    <g id="-BON-PLANS" stroke="none" stroke-width="1" fill="none" fill-rule="evenodd">
        <g id="Group-5" transform="translate(21.000000, 28.000000)">
            <circle id="Oval-Copy" fill="#FEC2BB" cx="61.5" cy="46.5" r="37.5"></circle>
            <g id="La-Bons-Plans-Picto-Copy" fill="#4A4A4A" fill-rule="nonzero">
                <path d="M62.9999621,14.8934652 C63.0047224,13.7156838 62.5607698,12.6099626 61.7498919,11.7797584 C60.939014,10.9495542 59.8569411,10.4957764 58.7087921,10.5000296 C57.5617505,10.5049729 56.4818925,10.9664354 55.6681845,11.7994112 C55.3236536,12.1521535 54.6969766,12.9140769 54.3541685,13.3369898 C53.9941337,13.7810671 54.0536884,14.4399394 54.4874281,14.8084291 C54.9210447,15.1770449 55.5645791,15.1160708 55.9246138,14.6719934 C56.4615897,14.0098457 56.9054193,13.488417 57.1115225,13.2772755 C57.54194,12.8367256 58.1121385,12.5925775 58.7172823,12.5899319 C58.7206046,12.5899319 58.7236807,12.5899319 58.727003,12.5899319 C59.3252562,12.5899319 59.8859801,12.8267732 60.3065538,13.2574968 C60.7294654,13.6904879 60.9611624,14.2683554 60.9585784,14.8846467 C60.9559944,15.5040874 60.7175299,16.0878759 60.2872355,16.5286778 C59.9019762,16.9231193 58.5777473,17.9986054 56.6804899,19.3555295 C55.5581807,17.3910068 53.4767223,16.0675932 51.0978599,16.0675932 L36.1521124,16.0675932 C34.1346383,16.0675932 32.2379961,16.8719717 30.8112693,18.3324508 L0.936754724,48.919367 C0.332718347,49.5377998 0,50.3600674 0,51.2346164 C0,52.1091653 0.332718347,52.9315589 0.936754724,53.5498657 L20.9523965,74.0425566 C21.5759973,74.6808942 22.3947502,75 23.2137492,75 C24.0327482,75 24.8517472,74.6807682 25.4751019,74.0425566 L55.3498626,43.4558924 C56.7763433,41.9952873 57.5619966,40.0534408 57.5619966,37.9877566 L57.5619966,22.6859209 C57.5619966,22.2342848 57.5173306,21.7933569 57.4326745,21.3669166 C59.5922676,19.8454634 61.1776016,18.5726936 61.7305736,18.0065421 C62.5444046,17.1735664 62.9951248,16.0679712 62.9999621,14.8934652 Z M55.5207745,37.9877566 C55.5207745,39.4951001 54.9473767,40.9122424 53.9065245,41.9779021 L24.0317638,72.5648182 C23.5809206,73.0265327 22.8468239,73.0265327 22.3958576,72.5648182 L2.38021586,52.0721274 C2.16180793,51.848514 2.04134518,51.5510766 2.04134518,51.2346164 C2.04134518,50.9181561 2.16168488,50.6208447 2.38021586,50.3972313 L32.2548535,19.8105671 C33.2959518,18.7447814 34.6799814,18.1578434 36.1521124,18.1578434 L51.0977369,18.1578434 C52.7760942,18.1578434 54.2391198,19.1199481 54.9882282,20.5336889 C53.7826164,21.3510432 52.4326708,22.2201751 51.00053,23.0748193 C50.955864,23.0246795 50.9102137,22.9750436 50.8628407,22.9265416 C49.1913739,21.2152374 46.4717952,21.2152374 44.8003285,22.9265416 C43.1288618,24.6378457 43.1288618,27.4222424 44.8003285,29.1335465 C45.6360619,29.9891986 46.7338847,30.4168987 47.8315846,30.4168987 C48.9292844,30.4168987 50.0271073,29.9891986 50.8628407,29.1335465 C51.9785053,27.9912913 52.3482607,26.3713222 51.9746909,24.911095 C53.2202929,24.1686984 54.4164301,23.4099245 55.5207745,22.6758426 C55.5207745,22.67937 55.5207745,22.6826455 55.5207745,22.6860469 L55.5207745,37.9877566 L55.5207745,37.9877566 Z M46.9200544,26.4995693 C47.0993335,26.8645316 47.4591221,27.0751691 47.832692,27.0751691 C47.9868695,27.0751691 48.143508,27.039265 48.2906719,26.9634254 C48.8889251,26.6552798 49.4850865,26.3347882 50.0753416,26.0064859 C50.0812479,26.6029984 49.8634552,27.2014005 49.4197487,27.6556822 C48.5441482,28.5520256 47.1197593,28.5520256 46.2441588,27.6556822 C45.3686813,26.7592128 45.3686813,25.3008753 46.2441588,24.4044059 C46.681959,23.9561712 47.2569564,23.7321798 47.8319537,23.7321798 C48.2872266,23.7321798 48.741146,23.8750405 49.128374,24.1558485 C48.5506696,24.477348 47.964352,24.7921705 47.3733586,25.0966627 C46.8694822,25.3558023 46.6665782,25.9840616 46.9200544,26.4995693 Z" id="Shape"></path>
                <polygon id="Path" points="64.1717321 34.5 66.3282679 34.5 66.3282679 31.8284067 69 31.8284067 69 29.671809 66.3282679 29.671809 66.3282679 27 64.1717321 27 64.1717321 29.671809 61.5 29.671809 61.5 31.8284067 64.1717321 31.8284067"></polygon>
                <polygon id="Path" points="34.1717321 7.5 36.3282679 7.5 36.3282679 4.82840671 39 4.82840671 39 2.67180895 36.3282679 2.67180895 36.3282679 0 34.1717321 0 34.1717321 2.67180895 31.5 2.67180895 31.5 4.82840671 34.1717321 4.82840671"></polygon>
                <polygon id="Path" points="28.1717321 16.5 30.3282679 16.5 30.3282679 13.8284067 33 13.8284067 33 11.671809 30.3282679 11.671809 30.3282679 9 28.1717321 9 28.1717321 11.671809 25.5 11.671809 25.5 13.8284067 28.1717321 13.8284067"></polygon>
            </g>
        </g>
    </g>
</svg>