<?xml version="1.0" encoding="UTF-8"?>
<svg width="140px" height="140px" viewBox="0 0 140 140" version="1.1" xmlns="http://www.w3.org/2000/svg" xmlns:xlink="http://www.w3.org/1999/xlink">
    <title>Idée du jour</title>
    <g id="Idée-du-jour" stroke="none" stroke-width="1" fill="none" fill-rule="evenodd">
        <g id="Group-7" transform="translate(21.000000, 33.000000)">
            <circle id="Oval" fill-opacity="0.497896635" fill="#FE8577" cx="37.5" cy="37.5" r="37.5"></circle>
            <g id="La-Daily-Picto" transform="translate(22.500000, 3.000000)" fill="#3F3735" fill-rule="nonzero">
                <path d="M64.5,40.9064092 L63.0503815,40.5 C61.7937959,45.7321944 58.4951651,50.1251992 54,52.5528145 L54.6696998,54 C59.5519789,51.3635176 63.1349925,46.5909603 64.5,40.9064092 Z" id="Path"></path>
                <rect id="Rectangle" x="1.5" y="60" width="67.5" height="1.5"></rect>
                <path d="M5.07783437,32.6228276 C5.17898746,32.1161092 5.27698987,31.6410305 5.37217327,31.1918097 L9.95324726,32.8242301 L10.52584,31.3169234 L5.7217318,29.605002 C6.35982536,26.8301763 6.854978,25.3476032 7.26788158,24.2617321 C7.72340211,23.0618292 8.63444318,22.1055687 9.83335598,21.5691378 C11.0322688,21.0327068 12.3747858,20.9806698 13.6143256,21.4226632 C14.8536997,21.8638536 15.8411859,22.7462343 16.3950405,23.9074307 C16.9487293,25.0684664 17.0027882,26.36891 16.5472676,27.5688129 C16.4885657,27.7231572 16.402171,27.9279325 16.2914001,28.176072 L12.2640149,26.7408782 L11.6914221,28.248185 L15.5992477,29.6408176 C14.9890127,30.8858513 14.1511003,32.5094383 13.1984372,34.2587814 L2.20558423,34.2587814 L2.20558423,35.90919 C2.20558423,36.3571259 2.21934768,36.8103619 2.24654293,37.2562099 C2.791443,46.2272949 8.72680755,53.7336343 16.8915198,56.8939193 L1.5,56.8939193 L1.5,58.5 L25.5303249,58.5 L45.839377,58.5 L69.869702,58.5 L69.869702,56.8939193 L54.4758606,56.8939193 C63.0740387,53.5627473 69.1639519,45.4123695 69.1639519,35.90919 L69.1639519,35.7802217 C70.2230745,35.6159196 71.2269774,35.2152025 72.1108232,34.5983069 C73.6168434,33.5468059 74.6101335,31.9906743 74.9081205,30.2161157 C75.2064392,28.4410753 74.7728076,26.660253 73.6874847,25.2020923 C72.9175605,24.1671339 71.8682216,23.3875423 70.6877153,22.9172819 C71.1049304,22.3394141 71.3702499,21.6603631 71.4367457,20.9515997 C71.474222,20.559716 71.4521674,20.1625323 71.3709132,19.7695243 C70.9085939,17.5677483 68.6827285,16.1396213 66.4086082,16.5869148 C66.0154378,16.6643279 65.640508,16.7942598 65.2927736,16.9706075 C65.2864722,16.9317403 65.2821608,16.8928732 65.275362,16.8538454 C64.8954575,14.7010548 63.6729976,12.8201737 61.8326748,11.5579549 C58.033796,8.95224954 52.7545999,9.82579684 50.0640937,13.5051671 C49.6317886,14.096526 49.2903555,14.7339795 49.0387994,15.3980939 C45.2881756,14.5150707 41.4403786,16.654049 40.3653369,20.2789731 C39.8975453,21.8545383 40.0149492,23.5471868 40.6958256,25.0450176 L42.2134535,24.3979277 C41.6884524,23.2433163 41.5980779,21.9380545 41.9589125,20.7227332 C42.370987,19.3333128 43.3170171,18.1823954 44.622721,17.4821442 C45.8524772,16.8230087 47.2624849,16.6379882 48.6215844,16.9518163 C48.3303961,18.7430781 48.650272,20.6170531 49.598292,22.2477069 L51.0432887,21.4597637 C49.7616294,19.2550967 49.9083843,16.4972955 51.4173893,14.4334818 C52.4644067,13.0013396 54.0249832,12.0497368 55.8110814,11.7542179 C57.5970137,11.4586991 59.3952171,11.8544374 60.874042,12.868838 C62.3527011,13.8830779 63.3353785,15.3943999 63.640496,17.1243094 C63.9456135,18.8542189 63.5368555,20.5958529 62.4896724,22.027995 L63.842968,22.9561491 C64.7288037,21.744843 65.2463427,20.3555832 65.3683897,18.9141257 C65.7305509,18.5305937 66.206302,18.265751 66.7387652,18.1608739 C68.1172662,17.8902493 69.4655871,18.7552844 69.7453334,20.0875283 C69.7947492,20.3258707 69.808181,20.5667828 69.785463,20.8049646 C69.7256003,21.4453089 69.3987597,22.0456619 68.8968083,22.4613156 C68.2023343,22.3765145 67.4906146,22.3888814 66.7838696,22.5146375 L67.083349,24.0943785 C69.0883358,23.7375073 71.1523562,24.5410295 72.3423145,26.1410071 C74.0478218,28.4327237 73.5092231,31.6421547 71.1414118,33.2954542 C70.2570685,33.912671 69.2150259,34.2452904 68.1270499,34.2586208 L59.0151468,34.2586208 C61.5026836,30.7414647 63.6008639,30.5556411 63.6239135,30.5541957 L63.6069994,30.5548381 L63.560071,28.9493998 C63.2219544,28.9587151 60.2321345,29.1904725 57.0429933,34.2586208 L56.6295922,34.2586208 C56.6589432,33.998757 56.678013,33.7368052 56.6823245,33.4732474 C56.7188059,31.1852248 55.8265031,29.027616 54.169914,27.3980865 C52.5128275,25.7680752 50.2998965,24.8704367 47.9385523,24.8704367 C46.4623806,24.8704367 45.0012989,25.2338927 43.7126749,25.9220983 C43.3334337,26.1255887 42.9328012,26.3178366 42.5225508,26.4932206 C40.4159134,27.3926258 38.1905456,27.754797 36.086893,27.5399034 C35.9127771,27.5222365 35.7351788,27.5138849 35.5562539,27.5111546 C33.6217426,25.9452259 31.4316954,24.6001333 29.7316603,23.6499759 C29.6973345,21.8546989 29.8611694,20.0451278 30.2218382,18.2688025 L30.4163506,17.3107754 L29.408302,17.3107754 C28.9431637,17.3107754 27.7546978,17.4140464 26.7675432,18.3701462 C26.6733548,18.4615322 26.5856335,18.5574152 26.5028869,18.6563498 C26.4201404,18.5574152 26.3324191,18.4615322 26.2382307,18.3701462 C25.2509102,17.4138858 24.0626102,17.3107754 23.5974719,17.3107754 L22.5894233,17.3107754 L22.7837699,18.2686419 C23.1444387,20.0451278 23.3081077,21.8545383 23.2739478,23.6490123 C21.8629452,24.4372767 20.1146551,25.4969687 18.4562419,26.7293145 C18.615102,25.5469179 18.4295441,24.3426785 17.9005633,23.2336798 C17.5254677,22.4473427 17.0011299,21.7573704 16.3598857,21.1907451 C16.7270216,20.9602726 17.0793992,20.6899692 17.388994,20.4370115 C18.5807763,19.4626023 19.9630912,18.0282116 21.2813979,16.3982003 C22.5995386,14.7686708 23.7060871,13.1254897 24.3972445,11.771403 C24.969174,10.6508405 25.6198703,9.07752384 24.6695287,8.35559056 C23.8954589,7.76824684 22.6147945,8.25858328 20.8505852,9.81198454 C20.8749614,9.59452122 20.8940313,9.38203674 20.9059707,9.17677962 C21.0450976,6.77761626 20.257596,5.98292753 19.5724082,5.73880326 C18.3607269,5.30708876 17.0069338,6.40564797 15.8043728,8.14712128 C15.5083757,5.76530359 14.8551921,4.54050644 13.8526158,4.50099686 C12.6546979,4.45425991 12.0890698,6.06066183 11.7748319,7.27309216 C11.3949275,8.73815898 11.138065,10.6839258 11.0513386,12.7522365 C10.9644465,14.8211897 11.0571425,16.7814112 11.3126784,18.2715329 C11.3808324,18.6691984 11.471041,19.1094252 11.6023742,19.5254001 C10.7608137,19.563143 9.92621782,19.7582818 9.13821871,20.1108165 C7.53701512,20.8271285 6.32019325,22.1044445 5.71194814,23.7066706 C5.14681746,25.1927771 4.43609267,27.3781711 3.44976717,32.3175117 L5.07783437,32.6228276 Z M17.3996068,29.7044184 C18.0187963,29.1321718 18.6975169,28.5796801 19.3991213,28.0565796 C18.3177783,29.7844012 17.5714012,31.7963385 17.5714012,33.9300167 C17.5714012,34.0398726 17.5755468,34.1492467 17.5778683,34.258942 L15.0709301,34.258942 C16.0411706,32.4533861 16.8475762,30.8619207 17.3996068,29.7044184 Z M29.669476,31.7258316 L26.6340543,31.7258316 L26.6340543,33.3319123 L29.4316833,33.3319123 C29.43102,33.6444556 29.4544013,33.9541079 29.5043146,34.258942 L23.9171819,34.258942 C23.9160212,34.1492467 23.9141971,34.0398726 23.9141971,33.9300167 C23.9141971,30.2177218 24.9686765,27.1199133 25.8220106,25.3943402 L25.8220106,25.6256158 L25.8236689,25.6256158 L25.823503,25.3914492 C26.0863352,24.8601577 26.3304292,24.4575133 26.5181428,24.2095344 C27.026064,24.8546971 27.9558432,26.6062887 28.5677365,29.2995254 L30.1873466,28.9545393 C29.8658125,27.5387791 29.4078046,26.1710408 28.8796528,25.0331326 C30.1966328,25.7688782 31.8200569,26.748748 33.3590762,27.8731651 C32.1223554,28.3201374 31.0506302,29.159154 30.3322774,30.282768 C30.0427475,30.7337555 29.8213714,31.2200767 29.669476,31.7258316 Z M19.2361156,34.258942 C19.2334624,34.1492467 19.2296485,34.0400332 19.2296485,33.9300167 C19.2296485,30.7511012 21.1893651,28.149411 22.3576003,26.8815709 C22.9268766,26.2637117 23.4905149,25.7547447 24.0131945,25.3450335 C23.9080616,25.5867487 23.80923,25.8284638 23.7176948,26.0639152 C23.1717998,27.4682722 22.2561156,30.3576114 22.2561156,33.9300167 C22.2561156,34.0398726 22.2579397,34.1492467 22.2591005,34.258942 L19.2361156,34.258942 Z M67.5058704,35.9093506 C67.5058704,47.4805197 57.7862197,56.8940799 45.839377,56.8940799 L25.5303249,56.8940799 C14.0743234,56.8940799 4.57405884,48.2267047 3.90197121,37.1619329 C3.87676585,36.7474035 3.86399735,36.3259679 3.86399735,35.9093506 L3.86399735,35.8650228 L67.5058704,35.8650228 L67.5058704,35.9093506 L67.5058704,35.9093506 Z M43.8857959,33.3394608 C43.8857959,31.1620972 45.7153402,29.3909114 47.964421,29.3909114 C50.2125068,29.3909114 52.0413878,31.1622578 52.0413878,33.3394608 C52.0413878,33.6521648 51.9997658,33.9590868 51.9258079,34.258942 L44.0018732,34.258942 C43.9274179,33.9598898 43.8857959,33.6529678 43.8857959,33.3394608 Z M43.1916536,27.9631057 C43.6476716,27.7681275 44.0934085,27.5541975 44.5146033,27.3280614 C45.557475,26.7712332 46.7414636,26.4768386 47.9383865,26.4768386 C49.851838,26.4768386 51.6452325,27.2043931 52.988247,28.5252339 C54.330764,29.8457535 55.0537598,31.5942935 55.0240772,33.4481925 C55.0195999,33.720905 54.9967161,33.9918508 54.9595714,34.258942 L53.6197076,34.258942 C53.6716107,33.9566777 53.6993034,33.6499162 53.6993034,33.3394608 C53.6993034,30.2766649 51.1263669,27.7848307 47.9640893,27.7848307 C44.8008168,27.7848307 42.227217,30.2766649 42.227217,33.3394608 C42.227217,33.6502375 42.2549097,33.9569989 42.3069787,34.258942 L31.1919128,34.258942 C31.1138094,33.9190954 31.0789862,33.5696122 31.0899306,33.2146684 C31.1124828,32.4789228 31.3373411,31.758435 31.7409585,31.1294938 C32.5035864,29.936497 33.8094562,29.1851725 35.2340564,29.1196444 C35.464387,29.1090443 35.6925618,29.1151474 35.9124454,29.1376325 C38.3041355,29.3812749 40.8206916,28.9754183 43.1916536,27.9631057 Z M27.9399241,19.5062877 C28.0798801,19.3707345 28.2282933,19.2661786 28.3755456,19.1855534 C28.1924751,20.3714834 28.0914879,21.5672105 28.0717547,22.7602072 C27.7767525,22.6089144 27.5273521,22.4844432 27.3318448,22.3885601 L27.3318448,20.9283116 C27.3318448,20.3910776 27.5477486,19.8861258 27.9399241,19.5062877 Z M24.6297308,19.1855534 C24.7769832,19.2661786 24.9253963,19.3707345 25.0653524,19.5062877 C25.4575278,19.8861258 25.6734316,20.3910776 25.6734316,20.9283116 L25.6734316,22.3883995 C25.4779243,22.4841219 25.2276948,22.609075 24.9335217,22.759886 C24.9139544,21.5670499 24.8129671,20.3714834 24.6297308,19.1855534 Z M23.3993113,9.928586 C23.0895507,10.8732827 22.0417042,12.854062 19.9758598,15.4082122 C19.4684361,16.0355473 18.9814088,16.5960695 18.5219085,17.0936333 C18.9240335,16.3142023 19.2910036,15.4859465 19.6067339,14.6547997 C19.8589533,13.9913278 20.0753546,13.3313892 20.2590884,12.6862266 C21.7115472,11.125598 22.7899054,10.2873844 23.3993113,9.928586 Z M18.9981571,7.25076764 C19.3495397,7.57519594 19.5790412,10.0769879 18.0508005,14.1000594 C16.5222281,18.1234522 14.6731165,19.8845197 14.1885767,19.9108594 C13.8371941,19.5864311 13.6075268,17.0846392 15.1359334,13.061407 C16.6645057,9.03801425 18.5136173,7.27710736 18.9981571,7.25076764 Z M12.7082593,12.8179252 C12.8440698,9.5762119 13.3718899,7.41009084 13.7680452,6.49623092 C13.9985415,7.17078482 14.2680067,8.54061105 14.3192466,10.7475266 L14.3283669,10.7473659 C14.0565802,11.3212186 13.8051899,11.9133805 13.5796683,12.5068274 C13.2257983,13.4383542 12.9230023,14.4079451 12.6979782,15.3511963 C12.6699538,14.5960171 12.6689589,13.7507369 12.7082593,12.8179252 Z" id="Shape"></path>
                <polygon id="Rectangle" transform="translate(9.764530, 26.812732) rotate(-159.801000) translate(-9.764530, -26.812732) " points="8.6186056 26.0220043 10.9257939 26.0004138 10.9104554 27.6034595 8.60326709 27.62505"></polygon>
                <path d="M69.2229685,31.0248246 C68.6313183,31.4148695 67.9093212,31.5704365 67.1894582,31.4635687 L66.9261378,32.9470922 C67.1635202,32.9824142 67.4012309,33 67.6369717,33 C68.5461167,33 69.4301445,32.740421 70.1823479,32.2447107 C71.1297434,31.6200376 71.7547191,30.6947519 71.9423595,29.6396015 C72.1296716,28.584451 71.8569938,27.5256933 71.1748887,26.6582755 L69.8426908,27.5366656 C70.2688628,28.0783696 70.4389376,28.7395672 70.3218881,29.3983598 C70.2046744,30.0570021 69.8144545,30.6346293 69.2229685,31.0248246 Z M55.07918,16.5713682 L55.5329317,15.1267741 C53.651274,14.6318154 51.679654,15.6303003 51.1385665,17.3532617 C50.5976433,19.0763734 51.688683,20.8811015 53.5705049,21.3765112 L54.0239283,19.9319171 C53.012016,19.6655742 52.4256191,18.6950463 52.7163551,17.7685581 C53.0072552,16.8420699 54.0672678,16.3050254 55.07918,16.5713682 Z" id="Shape"></path>
                <polygon id="Path" points="26.1372746 6 27.8625528 6 27.8625528 3.86272536 30 3.86272536 30 2.13744716 27.8625528 2.13744716 27.8625528 0 26.1372746 0 26.1372746 2.13744716 24 2.13744716 24 3.86272536 26.1372746 3.86272536"></polygon>
                <polygon id="Path" points="45.6373857 13.5 47.3626143 13.5 47.3626143 11.3627254 49.5 11.3627254 49.5 9.63744716 47.3626143 9.63744716 47.3626143 7.5 45.6373857 7.5 45.6373857 9.63744716 43.5 9.63744716 43.5 11.3627254 45.6373857 11.3627254"></polygon>
                <polygon id="Path" points="2.1373857 19.5 3.8626143 19.5 3.8626143 17.3627254 6 17.3627254 6 15.6374472 3.8626143 15.6374472 3.8626143 13.5 2.1373857 13.5 2.1373857 15.6374472 0 15.6374472 0 17.3627254 2.1373857 17.3627254"></polygon>
            </g>
        </g>
    </g>
</svg>