<?xml version="1.0" encoding="UTF-8"?>
<svg width="140px" height="140px" viewBox="0 0 140 140" version="1.1" xmlns="http://www.w3.org/2000/svg" xmlns:xlink="http://www.w3.org/1999/xlink">
    <title>La hebdo</title>
    <g id="La-hebdo" stroke="none" stroke-width="1" fill="none" fill-rule="evenodd">
        <g id="Group-3" transform="translate(21.000000, 29.000000)">
            <circle id="Oval-Copy" fill="#FEC2BB" cx="61.5" cy="37.5" r="37.5"></circle>
            <g id="La-Weekly-Picto-Copy" transform="translate(0.000000, 4.500000)" fill="#4A4A4A" fill-rule="nonzero">
                <path d="M59.612299,10.5 L13.6792734,10.5 C11.9319437,10.5 10.5108013,11.857496 10.5108013,13.5260087 L10.5108013,18.1194497 L3.16895103,18.1194497 C1.42162132,18.1194497 8.52651283e-14,19.4769457 8.52651283e-14,21.1454584 L8.52651283e-14,60.0819941 C8.52651283e-14,63.3179391 2.74600908,65.9533474 6.13050249,65.9766737 L6.14295599,65.9766737 C6.15397263,65.9771312 6.16403124,65.9780459 6.17504787,65.9780459 L38.7070892,65.9780459 C39.2148111,65.9780459 39.6267364,65.5851587 39.6267364,65.0998813 C39.6267364,64.6150613 39.2148111,64.2217168 38.7070892,64.2217168 L10.5678003,64.2217168 C11.668982,63.1564849 12.3500957,61.693792 12.3500957,60.0819941 L12.3500957,39.5462074 C12.3500957,39.0613875 11.9381704,38.6680429 11.4304485,38.6680429 C10.9222477,38.6680429 10.5108013,39.0613875 10.5108013,39.5462074 L10.5108013,60.0819941 C10.5108013,62.3569892 8.57858426,64.2089102 6.19851801,64.2212594 C6.19085428,64.2212594 6.18319055,64.2203446 6.17504787,64.2203446 C3.78444406,64.2198873 1.83929443,62.3633925 1.83929443,60.0819941 L1.83929443,21.1454584 C1.83929443,20.445671 2.43562815,19.8757788 3.16895103,19.8757788 L10.5108013,19.8757788 L10.5108013,36.2677264 C10.5108013,36.7530039 10.9222477,37.145891 11.4304485,37.145891 C11.9381704,37.145891 12.3500957,36.7530039 12.3500957,36.2677264 L12.3500957,13.5260087 C12.3500957,12.8257639 12.9464295,12.2563291 13.6792734,12.2563291 L59.612299,12.2563291 C60.3456219,12.2563291 60.9419556,12.8257639 60.9419556,13.5260087 L60.9419556,60.0819941 C60.9419556,62.3647646 58.9968059,64.2217168 56.6062021,64.2217168 L42.1404388,64.2217168 C41.632238,64.2217168 41.2207916,64.6150613 41.2207916,65.0998813 C41.2207916,65.5851587 41.632238,65.9780459 42.1404388,65.9780459 L56.6062021,65.9780459 C60.0112917,65.9780459 62.78125,63.3330325 62.78125,60.0819941 L62.78125,13.5260087 C62.78125,11.857496 61.3596287,10.5 59.612299,10.5 L59.612299,10.5 Z" id="Path"></path>
                <path d="M20.1488957,45.540138 L32.7619531,45.540138 C33.9618053,45.540138 34.9379726,44.6080028 34.9379726,43.4622725 L34.9379726,31.4181542 C34.9379726,30.2724239 33.9618053,29.3402888 32.7619531,29.3402888 L20.1488957,29.3402888 C18.9490435,29.3402888 17.9728763,30.2724239 17.9728763,31.4181542 L17.9728763,43.4622725 C17.9728763,44.6080028 18.9490435,45.540138 20.1488957,45.540138 L20.1488957,45.540138 Z M19.8121708,31.4181542 C19.8121708,31.2406918 19.9630504,31.0966179 20.1488957,31.0966179 L32.7619531,31.0966179 C32.9473194,31.0966179 33.0986782,31.2406918 33.0986782,31.4181542 L33.0986782,43.4622725 C33.0986782,43.6392776 32.9473194,43.7838089 32.7619531,43.7838089 L20.1488957,43.7838089 C19.9630504,43.7838089 19.8121708,43.6392776 19.8121708,43.4622725 L19.8121708,31.4181542 Z" id="Shape"></path>
                <path d="M38.2807944,31.0966179 L55.3493509,31.0966179 C55.8570728,31.0966179 56.2689981,30.7037307 56.2689981,30.2184533 C56.2689981,29.733176 55.8570728,29.3402888 55.3493509,29.3402888 L38.2807944,29.3402888 C37.7730725,29.3402888 37.3611471,29.733176 37.3611471,30.2184533 C37.3611471,30.7037307 37.7730725,31.0966179 38.2807944,31.0966179 L38.2807944,31.0966179 Z" id="Path"></path>
                <path d="M38.2807944,38.3186067 L55.3493509,38.3186067 C55.8570728,38.3186067 56.2689981,37.925262 56.2689981,37.4404421 C56.2689981,36.9551646 55.8570728,36.5622776 55.3493509,36.5622776 L38.2807944,36.5622776 C37.7730725,36.5622776 37.3611471,36.9551646 37.3611471,37.4404421 C37.3611471,37.925262 37.7730725,38.3186067 38.2807944,38.3186067 L38.2807944,38.3186067 Z" id="Path"></path>
                <path d="M38.2807944,45.540138 L55.3493509,45.540138 C55.8570728,45.540138 56.2689981,45.1467934 56.2689981,44.6619734 C56.2689981,44.1766961 55.8570728,43.7838089 55.3493509,43.7838089 L38.2807944,43.7838089 C37.7730725,43.7838089 37.3611471,44.1766961 37.3611471,44.6619734 C37.3611471,45.1467934 37.7730725,45.540138 38.2807944,45.540138 L38.2807944,45.540138 Z" id="Path"></path>
                <path d="M18.8925236,52.7616693 L55.3493509,52.7616693 C55.8570728,52.7616693 56.2689981,52.3687821 56.2689981,51.8835047 C56.2689981,51.3986847 55.8570728,51.0053402 55.3493509,51.0053402 L18.8925236,51.0053402 C18.3848017,51.0053402 17.9728763,51.3986847 17.9728763,51.8835047 C17.9728763,52.3687821 18.3848017,52.7616693 18.8925236,52.7616693 Z" id="Path"></path>
                <path d="M18.8925236,59.9836581 L55.3493509,59.9836581 C55.8570728,59.9836581 56.2689981,59.5907709 56.2689981,59.1054935 C56.2689981,58.6202161 55.8570728,58.227329 55.3493509,58.227329 L18.8925236,58.227329 C18.3848017,58.227329 17.9728763,58.6202161 17.9728763,59.1054935 C17.9728763,59.5907709 18.3848017,59.9836581 18.8925236,59.9836581 Z" id="Path"></path>
                <path d="M17.9963465,24.8465561 L17.9963465,15.5672839 C17.9963465,15.3765576 18.091185,15.2311116 18.2808624,15.1314033 C18.4705395,15.0312377 18.7004513,14.9809261 18.9696398,14.9809261 C19.329356,14.9809261 19.6033342,15.0431294 19.7934904,15.1670787 C19.9826887,15.291028 20.1924832,15.5581364 20.422395,15.9674891 L23.312099,21.3009667 L23.312099,15.5531052 C23.312099,15.3623789 23.4069376,15.2196771 23.5966148,15.1240853 C23.7858131,15.0289508 24.0157249,14.9809261 24.2853923,14.9809261 C24.5550596,14.9809261 24.7844925,15.0289508 24.9741697,15.1240853 C25.163847,15.2196771 25.2586857,15.3623789 25.2586857,15.5531052 L25.2586857,24.8465561 C25.2586857,25.0281349 25.160973,25.1708366 24.966506,25.275576 C24.772039,25.3807729 24.545001,25.4329138 24.2853923,25.4329138 C23.7561161,25.4329138 23.3815515,25.2376138 23.1621773,24.8465561 L19.9429331,19.0986946 L19.9429331,24.8465561 C19.9429331,25.0281349 19.8456995,25.1708366 19.6512325,25.275576 C19.4567654,25.3807729 19.2292485,25.4329138 18.9696398,25.4329138 C18.7004513,25.4329138 18.4705395,25.3807729 18.2813413,25.275576 C18.091185,25.1708366 17.9963465,25.0281349 17.9963465,24.8465561 Z" id="Path"></path>
                <path d="M27.0553505,24.8465561 L27.0553505,15.5672839 C27.0553505,15.3861625 27.1401306,15.2434608 27.3101694,15.1382639 C27.4797294,15.0335245 27.6789863,14.9809261 27.9088981,14.9809261 L33.2394991,14.9809261 C33.438756,14.9809261 33.5915516,15.0623393 33.6959698,15.2242509 C33.8008671,15.3861625 33.8535553,15.572315 33.8535553,15.7817939 C33.8535553,16.0104826 33.7984722,16.2062401 33.6887851,16.3681518 C33.578619,16.5305206 33.4286974,16.6110191 33.2394991,16.6110191 L29.0019371,16.6110191 L29.0019371,19.4705424 L31.278064,19.4705424 C31.4672623,19.4705424 31.6171839,19.5446376 31.72735,19.6923704 C31.8370371,19.8401033 31.8921202,20.0139067 31.8921202,20.2142381 C31.8921202,20.3953595 31.839432,20.5595579 31.7345348,20.7077483 C31.6296375,20.8554811 31.4778,20.9291188 31.278064,20.9291188 L29.0019371,20.9291188 L29.0019371,23.8032783 L33.2394991,23.8032783 C33.4286974,23.8032783 33.578619,23.8842341 33.6887851,24.0461456 C33.7984722,24.2085146 33.8535553,24.4038148 33.8535553,24.6325035 C33.8535553,24.8419823 33.8008671,25.0281349 33.6959698,25.1900465 C33.5915516,25.3524154 33.438756,25.4329138 33.2394991,25.4329138 L27.9088981,25.4329138 C27.6789863,25.4329138 27.4797294,25.3807729 27.3101694,25.2760334 C27.1401306,25.1708366 27.0553505,25.0281349 27.0553505,24.8465561 L27.0553505,24.8465561 Z" id="Path"></path>
                <path d="M34.8268486,15.7246218 C34.8268486,15.5242904 34.9614427,15.350487 35.23111,15.2027541 C35.5002985,15.0550213 35.7800245,14.9809261 36.0693302,14.9809261 C36.4290464,14.9809261 36.6436308,15.1048754 36.7130833,15.3527739 L39.0792589,23.1025761 L40.3519165,18.1267677 C40.4414864,17.7832773 40.760968,17.6117607 41.3098824,17.6117607 C41.8492172,17.6117607 42.16343,17.7832773 42.2534788,18.1267677 L43.5261364,23.1025761 L45.8918331,15.3527739 C45.9617645,15.1048754 46.1763489,14.9809261 46.5360651,14.9809261 C46.8253708,14.9809261 47.1046179,15.0550213 47.3742852,15.2027541 C47.6439526,15.350487 47.7785469,15.5242904 47.7785469,15.7246218 C47.7785469,15.7817939 47.7684881,15.8389661 47.7488499,15.8961383 L44.7839455,24.8895495 C44.6340239,25.309422 44.2096451,25.5189008 43.5112879,25.5189008 C43.2119236,25.5189008 42.9422562,25.4640155 42.7027647,25.3542449 C42.4632733,25.2449318 42.3181415,25.0898809 42.2683273,24.8895495 L41.3103614,21.0292845 L40.3370681,24.8895495 C40.2867748,25.0898809 40.1421221,25.2449318 39.9026306,25.3542449 C39.6631391,25.4640155 39.3934717,25.5189008 39.0941074,25.5189008 C38.7846844,25.5189008 38.5102272,25.4640155 38.2707357,25.3542449 C38.0307653,25.2449318 37.8813227,25.0898809 37.8214497,24.8895495 L34.8565454,15.8961383 C34.8364281,15.8389661 34.8268486,15.7817939 34.8268486,15.7246218 L34.8268486,15.7246218 Z" id="Path"></path>
                <path d="M48.2728573,23.7886423 C48.2728573,23.5695585 48.3600321,23.3477304 48.5348608,23.1236155 C48.7092106,22.899958 48.9065516,22.7879005 49.1264048,22.7879005 C49.2557301,22.7879005 49.403257,22.8473596 49.5680271,22.9662777 C49.7327972,23.0847385 49.8922985,23.2164631 50.04701,23.3596222 C50.2017214,23.5032388 50.4239695,23.634506 50.7137542,23.7534241 C51.0030598,23.8723422 51.3225414,23.931344 51.6717201,23.931344 C52.151182,23.931344 52.5501747,23.8266045 52.8696564,23.6166684 C53.189138,23.4071895 53.3486393,23.097545 53.3486393,22.6877349 C53.3486393,22.4014166 53.2614643,22.1466574 53.0866356,21.9225426 C52.9122858,21.698885 52.682374,21.5127325 52.3978581,21.3649995 C52.1138212,21.2172666 51.8015244,21.0741075 51.4624045,20.9359795 C51.1228056,20.7978516 50.7808117,20.6428006 50.4364231,20.4712841 C50.0920343,20.2997675 49.7778215,20.1067544 49.4933056,19.8922444 C49.2087898,19.6777343 48.978878,19.3918735 48.8045282,19.0342044 C48.6296995,18.6769927 48.5425245,18.2694695 48.5425245,17.8120921 C48.5425245,17.299372 48.6498167,16.8465684 48.8644011,16.4550534 C49.0789854,16.063081 49.3658962,15.7584676 49.7251335,15.540756 C50.0843706,15.3230444 50.468515,15.1634197 50.8780453,15.061882 C51.2870968,14.9603441 51.7215343,14.9091179 52.1808788,14.9091179 C52.4400086,14.9091179 52.7144659,14.9264983 53.0042505,14.9608015 C53.2935562,14.9951048 53.6005842,15.0513623 53.9253347,15.1295737 C54.2496061,15.2077853 54.5140047,15.3303624 54.7185304,15.4963904 C54.9230561,15.6628758 55.0255585,15.8586333 55.0255585,16.0841203 C55.0255585,16.2963434 54.955627,16.5158846 54.816243,16.7427437 C54.6763799,16.9696029 54.4867027,17.0825752 54.2472112,17.0825752 C54.1571625,17.0825752 53.9124022,16.9920144 53.5134094,16.8108931 C53.1139376,16.6297715 52.6699204,16.5392108 52.1808788,16.5392108 C51.6415441,16.5392108 51.2248289,16.6370895 50.9307335,16.8323897 C50.6361589,17.0281472 50.4886322,17.2970851 50.4886322,17.6401182 C50.4886322,17.9168315 50.6083779,18.157412 50.8483484,18.3623171 C51.0878399,18.5672222 51.3848093,18.7341649 51.7392567,18.8626879 C52.0932251,18.9912109 52.4778483,19.1535799 52.8921685,19.3488801 C53.3060097,19.5441802 53.690633,19.7564033 54.0450804,19.9850919 C54.3990488,20.2137807 54.6964972,20.5449218 54.9359886,20.9785157 C55.1754801,21.4125668 55.2952259,21.9202556 55.2952259,22.5015823 C55.2952259,23.4789977 54.9680805,24.2336704 54.3147478,24.7646855 C53.6604572,25.2957006 52.7997248,25.5614368 51.7315929,25.5614368 C50.7832067,25.5614368 49.9698937,25.3752843 49.2911749,25.0034366 C48.611977,24.6325035 48.2728573,24.2272671 48.2728573,23.7886423 L48.2728573,23.7886423 Z" id="Path"></path>
                <polygon id="Path" points="59.0702831 6.6 61.0188126 6.6 61.0188126 4.2489979 63.4328457 4.2489979 63.4328457 2.35119188 61.0188126 2.35119188 61.0188126 -1.73194792e-14 59.0702831 -1.73194792e-14 59.0702831 2.35119188 56.65625 2.35119188 56.65625 4.2489979 59.0702831 4.2489979"></polygon>
                <polygon id="Path" points="68.2577831 15.6 70.2063126 15.6 70.2063126 13.2489979 72.6203457 13.2489979 72.6203457 11.3511919 70.2063126 11.3511919 70.2063126 9 68.2577831 9 68.2577831 11.3511919 65.84375 11.3511919 65.84375 13.2489979 68.2577831 13.2489979"></polygon>
                <polygon id="Path" points="2.41403314 77.1 4.3625626 77.1 4.3625626 74.7489979 6.77659574 74.7489979 6.77659574 72.8511919 4.3625626 72.8511919 4.3625626 70.5 2.41403314 70.5 2.41403314 72.8511919 3.73034936e-14 72.8511919 3.73034936e-14 74.7489979 2.41403314 74.7489979"></polygon>
            </g>
        </g>
    </g>
</svg>